<mxfile host="app.diagrams.net" modified="2023-11-06T14:10:02.190Z" agent="Mozilla/5.0 (Windows NT 10.0; Win64; x64) AppleWebKit/537.36 (KHTML, like Gecko) Chrome/118.0.0.0 Safari/537.36" etag="XUby0i506KftQy1JUu1t" version="22.0.8" type="device">
  <diagram name="HomePage" id="2cc2dc42-3aac-f2a9-1cec-7a8b7cbee084">
    <mxGraphModel dx="2234" dy="651" grid="1" gridSize="10" guides="1" tooltips="1" connect="1" arrows="1" fold="1" page="1" pageScale="1" pageWidth="1100" pageHeight="850" background="none" math="0" shadow="0">
      <root>
        <mxCell id="0" />
        <mxCell id="1" parent="0" />
        <mxCell id="7026571954dc6520-1" value="" style="strokeWidth=1;shadow=0;dashed=0;align=center;html=1;shape=mxgraph.mockup.containers.browserWindow;rSize=0;strokeColor=#666666;mainText=,;recursiveResize=0;rounded=0;labelBackgroundColor=none;fontFamily=Verdana;fontSize=12" parent="1" vertex="1">
          <mxGeometry x="25" y="20" width="1050" height="2160" as="geometry" />
        </mxCell>
        <mxCell id="7026571954dc6520-2" value="Home Page" style="strokeWidth=1;shadow=0;dashed=0;align=center;html=1;shape=mxgraph.mockup.containers.anchor;fontSize=17;fontColor=#666666;align=left;" parent="7026571954dc6520-1" vertex="1">
          <mxGeometry x="60" y="12" width="110" height="26" as="geometry" />
        </mxCell>
        <mxCell id="7026571954dc6520-3" value="https://www.companyname.io" style="strokeWidth=1;shadow=0;dashed=0;align=center;html=1;shape=mxgraph.mockup.containers.anchor;rSize=0;fontSize=17;fontColor=#666666;align=left;" parent="7026571954dc6520-1" vertex="1">
          <mxGeometry x="130" y="60" width="250" height="26" as="geometry" />
        </mxCell>
        <mxCell id="7026571954dc6520-6" value="&lt;font style=&quot;font-size: 33px;&quot;&gt;Our Mission&lt;/font&gt;" style="text;html=1;points=[];align=left;verticalAlign=top;spacingTop=-4;fontSize=15;fontFamily=Verdana" parent="7026571954dc6520-1" vertex="1">
          <mxGeometry x="712.5" y="580" width="210" height="50" as="geometry" />
        </mxCell>
        <mxCell id="7026571954dc6520-7" value="Lorem ipsum dolor sit amet, consectetur adipiscing elit. Sed sit amet blandit sem, quis laoreet quam. Nulla ipsum dui, porta ac diam sed, fermentum finibus elit. Maecenas quis orci nibh. Donec cursus nunc lacus, nec scelerisque diam porta eget. Suspendisse vitae finibus eros, eget venenatis justo. Orci varius natoque penatibus et magnis dis parturient montes, nascetur ridiculus mus." style="text;html=1;points=[];align=left;verticalAlign=top;spacingTop=-4;fontSize=12;fontFamily=Verdana;whiteSpace=wrap;" parent="7026571954dc6520-1" vertex="1">
          <mxGeometry x="675" y="640" width="285" height="150" as="geometry" />
        </mxCell>
        <mxCell id="7026571954dc6520-8" value="&lt;font style=&quot;font-size: 33px;&quot;&gt;About the company&lt;/font&gt;" style="text;html=1;points=[];align=left;verticalAlign=top;spacingTop=-4;fontSize=15;fontFamily=Verdana" parent="7026571954dc6520-1" vertex="1">
          <mxGeometry x="85" y="870" width="340" height="50" as="geometry" />
        </mxCell>
        <mxCell id="7026571954dc6520-9" value="Lorem ipsum dolor sit amet, consectetur adipiscing elit. Sed sit amet blandit sem, quis laoreet quam. Nulla ipsum dui, porta ac diam sed, fermentum finibus elit. Maecenas quis orci nibh. Donec cursus nunc lacus, nec scelerisque diam porta eget. Suspendisse vitae finibus eros, eget venenatis justo. Orci varius natoque penatibus et magnis dis parturient montes, nascetur ridiculus mus." style="text;html=1;points=[];align=left;verticalAlign=top;spacingTop=-4;fontSize=12;fontFamily=Verdana;whiteSpace=wrap;" parent="7026571954dc6520-1" vertex="1">
          <mxGeometry x="117.75" y="930" width="274.5" height="170" as="geometry" />
        </mxCell>
        <mxCell id="7026571954dc6520-15" value="" style="verticalLabelPosition=bottom;shadow=0;dashed=0;align=center;html=1;verticalAlign=top;strokeWidth=1;shape=mxgraph.mockup.markup.line;strokeColor=#999999;rounded=0;labelBackgroundColor=none;fillColor=#ffffff;fontFamily=Verdana;fontSize=12;fontColor=#000000;" parent="7026571954dc6520-1" vertex="1">
          <mxGeometry y="1140" width="1050" height="20" as="geometry" />
        </mxCell>
        <mxCell id="7026571954dc6520-16" value="&lt;font style=&quot;font-size: 23px;&quot;&gt;Company Services&lt;/font&gt;" style="text;html=1;points=[];align=left;verticalAlign=top;spacingTop=-4;fontSize=15;fontFamily=Verdana" parent="7026571954dc6520-1" vertex="1">
          <mxGeometry x="393" y="1160" width="260" height="30" as="geometry" />
        </mxCell>
        <mxCell id="7026571954dc6520-21" value="" style="verticalLabelPosition=bottom;shadow=0;dashed=0;align=center;html=1;verticalAlign=top;strokeWidth=1;shape=mxgraph.mockup.markup.line;strokeColor=#999999;rounded=0;labelBackgroundColor=none;fillColor=#ffffff;fontFamily=Verdana;fontSize=12;fontColor=#000000;" parent="7026571954dc6520-1" vertex="1">
          <mxGeometry y="1410" width="1050" height="20" as="geometry" />
        </mxCell>
        <mxCell id="7026571954dc6520-22" value="" style="verticalLabelPosition=bottom;shadow=0;dashed=0;align=center;html=1;verticalAlign=top;strokeWidth=1;shape=mxgraph.mockup.graphics.simpleIcon;strokeColor=#999999;fillColor=#ffffff;rounded=0;labelBackgroundColor=none;fontFamily=Verdana;fontSize=12;fontColor=#000000;" parent="7026571954dc6520-1" vertex="1">
          <mxGeometry x="15" y="1440" width="200" height="200" as="geometry" />
        </mxCell>
        <mxCell id="7026571954dc6520-31" value="Title 2" style="text;html=1;points=[];align=left;verticalAlign=top;spacingTop=-4;fontSize=15;fontFamily=Verdana" parent="7026571954dc6520-1" vertex="1">
          <mxGeometry x="280" y="1440" width="170" height="30" as="geometry" />
        </mxCell>
        <mxCell id="7026571954dc6520-32" value="Title 3" style="text;html=1;points=[];align=left;verticalAlign=top;spacingTop=-4;fontSize=15;fontFamily=Verdana" parent="7026571954dc6520-1" vertex="1">
          <mxGeometry x="780" y="1440" width="170" height="30" as="geometry" />
        </mxCell>
        <mxCell id="7026571954dc6520-33" value="&lt;div style=&quot;text-align: justify&quot;&gt;&lt;span&gt;Some default text to fill some space, and&amp;nbsp;&lt;/span&gt;&lt;span&gt;something more so there is more text&lt;/span&gt;&lt;/div&gt;&lt;div style=&quot;text-align: justify&quot;&gt;&lt;hr id=&quot;null&quot; style=&quot;text-align: justify&quot;&gt;&lt;span&gt;&lt;div style=&quot;text-align: justify&quot;&gt;&lt;span&gt;Some default text to fill some space, and&amp;nbsp;&lt;/span&gt;&lt;span&gt;something more so there is more text&lt;/span&gt;&lt;/div&gt;&lt;/span&gt;&lt;/div&gt;&lt;hr id=&quot;null&quot; style=&quot;text-align: justify&quot;&gt;&lt;span&gt;&lt;div style=&quot;text-align: justify&quot;&gt;&lt;span&gt;Some default text to fill some space, and&amp;nbsp;&lt;/span&gt;&lt;span&gt;something more so there is more text&lt;/span&gt;&lt;/div&gt;&lt;/span&gt;&lt;hr id=&quot;null&quot; style=&quot;text-align: justify&quot;&gt;&lt;span&gt;&lt;div style=&quot;text-align: justify&quot;&gt;&lt;span&gt;Some default text to fill some space, and&amp;nbsp;&lt;/span&gt;&lt;span&gt;something more so there is more text&lt;/span&gt;&lt;/div&gt;&lt;/span&gt;&lt;hr id=&quot;null&quot; style=&quot;text-align: left&quot;&gt;" style="whiteSpace=wrap;html=1;rounded=0;shadow=0;labelBackgroundColor=none;strokeWidth=1;fontFamily=Verdana;fontSize=12;align=center;verticalAlign=top;" parent="7026571954dc6520-1" vertex="1">
          <mxGeometry x="780" y="1470" width="260" height="170" as="geometry" />
        </mxCell>
        <mxCell id="7026571954dc6520-34" value="Some default text to fill some space, and&amp;nbsp;&lt;span&gt;something more so there is more text&lt;/span&gt;" style="text;html=1;points=[];align=left;verticalAlign=top;spacingTop=-4;fontSize=12;fontFamily=Verdana;whiteSpace=wrap;" parent="7026571954dc6520-1" vertex="1">
          <mxGeometry x="270" y="1480" width="470" height="40" as="geometry" />
        </mxCell>
        <mxCell id="2FPmp4NiGXTtn7AZh2EG-2" value="&lt;font style=&quot;font-size: 19px;&quot;&gt;Header&lt;/font&gt;" style="rounded=0;whiteSpace=wrap;html=1;" vertex="1" parent="7026571954dc6520-1">
          <mxGeometry y="110" width="1050" height="60" as="geometry" />
        </mxCell>
        <mxCell id="2FPmp4NiGXTtn7AZh2EG-4" value="&lt;font style=&quot;font-size: 19px;&quot;&gt;Logo&lt;/font&gt;" style="rounded=0;whiteSpace=wrap;html=1;" vertex="1" parent="7026571954dc6520-1">
          <mxGeometry x="30" y="120" width="130" height="40" as="geometry" />
        </mxCell>
        <mxCell id="2FPmp4NiGXTtn7AZh2EG-5" value="&lt;font style=&quot;font-size: 12px;&quot;&gt;Header item 1&lt;/font&gt;" style="strokeWidth=1;shadow=0;dashed=0;align=center;html=1;shape=mxgraph.mockup.buttons.button;strokeColor=#666666;mainText=;buttonStyle=round;fontSize=17;fontStyle=0;fillColor=none;whiteSpace=wrap;rounded=0;labelBackgroundColor=none;" vertex="1" parent="7026571954dc6520-1">
          <mxGeometry x="630" y="127.5" width="80" height="25" as="geometry" />
        </mxCell>
        <mxCell id="2FPmp4NiGXTtn7AZh2EG-6" value="&lt;font style=&quot;font-size: 12px;&quot;&gt;Header item 2&lt;/font&gt;" style="strokeWidth=1;shadow=0;dashed=0;align=center;html=1;shape=mxgraph.mockup.buttons.button;strokeColor=#666666;mainText=;buttonStyle=round;fontSize=17;fontStyle=0;fillColor=none;whiteSpace=wrap;rounded=0;labelBackgroundColor=none;" vertex="1" parent="7026571954dc6520-1">
          <mxGeometry x="740" y="127.5" width="80" height="25" as="geometry" />
        </mxCell>
        <mxCell id="2FPmp4NiGXTtn7AZh2EG-7" value="&lt;font style=&quot;font-size: 12px;&quot;&gt;Header item 3&lt;/font&gt;" style="strokeWidth=1;shadow=0;dashed=0;align=center;html=1;shape=mxgraph.mockup.buttons.button;strokeColor=#666666;mainText=;buttonStyle=round;fontSize=17;fontStyle=0;fillColor=none;whiteSpace=wrap;rounded=0;labelBackgroundColor=none;" vertex="1" parent="7026571954dc6520-1">
          <mxGeometry x="840" y="127.5" width="80" height="25" as="geometry" />
        </mxCell>
        <mxCell id="2FPmp4NiGXTtn7AZh2EG-8" value="&lt;font style=&quot;font-size: 12px;&quot;&gt;Header item 4&lt;/font&gt;" style="strokeWidth=1;shadow=0;dashed=0;align=center;html=1;shape=mxgraph.mockup.buttons.button;strokeColor=#666666;mainText=;buttonStyle=round;fontSize=17;fontStyle=0;fillColor=none;whiteSpace=wrap;rounded=0;labelBackgroundColor=none;" vertex="1" parent="7026571954dc6520-1">
          <mxGeometry x="950" y="127.5" width="80" height="25" as="geometry" />
        </mxCell>
        <mxCell id="2FPmp4NiGXTtn7AZh2EG-9" value="" style="verticalLabelPosition=bottom;shadow=0;dashed=0;align=center;html=1;verticalAlign=top;strokeWidth=1;shape=mxgraph.mockup.markup.line;strokeColor=#999999;rounded=0;labelBackgroundColor=none;fillColor=#ffffff;fontFamily=Verdana;fontSize=12;fontColor=#000000;" vertex="1" parent="7026571954dc6520-1">
          <mxGeometry y="526" width="1050" height="20" as="geometry" />
        </mxCell>
        <mxCell id="2FPmp4NiGXTtn7AZh2EG-10" value="" style="verticalLabelPosition=bottom;shadow=0;dashed=0;align=center;html=1;verticalAlign=top;strokeWidth=1;shape=mxgraph.mockup.graphics.simpleIcon;strokeColor=#999999;fillColor=#ffffff;rounded=0;labelBackgroundColor=none;fontFamily=Verdana;fontSize=12;fontColor=#000000;aspect=fixed;" vertex="1" parent="7026571954dc6520-1">
          <mxGeometry x="-193" y="272" width="200" height="178.95" as="geometry" />
        </mxCell>
        <mxCell id="2FPmp4NiGXTtn7AZh2EG-22" value="" style="verticalLabelPosition=bottom;shadow=0;dashed=0;align=center;html=1;verticalAlign=top;strokeWidth=1;shape=mxgraph.mockup.graphics.simpleIcon;strokeColor=#999999;fillColor=#ffffff;rounded=0;labelBackgroundColor=none;fontFamily=Verdana;fontSize=12;fontColor=#000000;aspect=fixed;" vertex="1" parent="7026571954dc6520-1">
          <mxGeometry x="340" y="200.51000000000005" width="360" height="321.93" as="geometry" />
        </mxCell>
        <mxCell id="2FPmp4NiGXTtn7AZh2EG-11" value="" style="verticalLabelPosition=bottom;shadow=0;dashed=0;align=center;html=1;verticalAlign=top;strokeWidth=1;shape=mxgraph.mockup.graphics.simpleIcon;strokeColor=#999999;fillColor=#ffffff;rounded=0;labelBackgroundColor=none;fontFamily=Verdana;fontSize=12;fontColor=#000000;aspect=fixed;" vertex="1" parent="7026571954dc6520-1">
          <mxGeometry x="20" y="227.32" width="300" height="268.31" as="geometry" />
        </mxCell>
        <mxCell id="2FPmp4NiGXTtn7AZh2EG-12" value="" style="edgeStyle=orthogonalEdgeStyle;rounded=0;orthogonalLoop=1;jettySize=auto;html=1;" edge="1" parent="7026571954dc6520-1" source="2FPmp4NiGXTtn7AZh2EG-10" target="2FPmp4NiGXTtn7AZh2EG-11">
          <mxGeometry relative="1" as="geometry" />
        </mxCell>
        <mxCell id="2FPmp4NiGXTtn7AZh2EG-23" value="" style="edgeStyle=orthogonalEdgeStyle;rounded=0;orthogonalLoop=1;jettySize=auto;html=1;" edge="1" parent="7026571954dc6520-1" source="2FPmp4NiGXTtn7AZh2EG-11" target="2FPmp4NiGXTtn7AZh2EG-22">
          <mxGeometry relative="1" as="geometry">
            <mxPoint x="351" y="361" as="sourcePoint" />
            <mxPoint x="707" y="361" as="targetPoint" />
          </mxGeometry>
        </mxCell>
        <mxCell id="2FPmp4NiGXTtn7AZh2EG-13" value="" style="verticalLabelPosition=bottom;shadow=0;dashed=0;align=center;html=1;verticalAlign=top;strokeWidth=1;shape=mxgraph.mockup.graphics.simpleIcon;strokeColor=#999999;fillColor=#ffffff;rounded=0;labelBackgroundColor=none;fontFamily=Verdana;fontSize=12;fontColor=#000000;aspect=fixed;" vertex="1" parent="7026571954dc6520-1">
          <mxGeometry x="730" y="227.32" width="300" height="268.31" as="geometry" />
        </mxCell>
        <mxCell id="2FPmp4NiGXTtn7AZh2EG-14" value="" style="edgeStyle=orthogonalEdgeStyle;rounded=0;orthogonalLoop=1;jettySize=auto;html=1;" edge="1" parent="7026571954dc6520-1" source="2FPmp4NiGXTtn7AZh2EG-22" target="2FPmp4NiGXTtn7AZh2EG-13">
          <mxGeometry relative="1" as="geometry" />
        </mxCell>
        <mxCell id="2FPmp4NiGXTtn7AZh2EG-31" value="" style="group" vertex="1" connectable="0" parent="7026571954dc6520-1">
          <mxGeometry x="70" y="546" width="329" height="264" as="geometry" />
        </mxCell>
        <mxCell id="2FPmp4NiGXTtn7AZh2EG-24" value="" style="shape=image;html=1;verticalAlign=top;verticalLabelPosition=bottom;labelBackgroundColor=#ffffff;imageAspect=0;aspect=fixed;image=https://cdn4.iconfinder.com/data/icons/evil-icons-user-interface/64/picture-128.png" vertex="1" parent="2FPmp4NiGXTtn7AZh2EG-31">
          <mxGeometry x="8.9159891598916" width="143.94628836900614" height="143.94628836900614" as="geometry" />
        </mxCell>
        <mxCell id="2FPmp4NiGXTtn7AZh2EG-26" value="" style="shape=image;html=1;verticalAlign=top;verticalLabelPosition=bottom;labelBackgroundColor=#ffffff;imageAspect=0;aspect=fixed;image=https://cdn4.iconfinder.com/data/icons/evil-icons-user-interface/64/picture-128.png;container=0;" vertex="1" parent="2FPmp4NiGXTtn7AZh2EG-31">
          <mxGeometry x="44.579945799457995" y="146.74439292135895" width="116.15357557657211" height="116.15357557657211" as="geometry" />
        </mxCell>
        <mxCell id="2FPmp4NiGXTtn7AZh2EG-25" value="" style="shape=image;html=1;verticalAlign=top;verticalLabelPosition=bottom;labelBackgroundColor=#ffffff;imageAspect=0;aspect=fixed;image=https://cdn4.iconfinder.com/data/icons/evil-icons-user-interface/64/picture-128.png;container=0;" vertex="1" parent="2FPmp4NiGXTtn7AZh2EG-31">
          <mxGeometry x="102.53387533875339" y="37.22532412226738" width="187.7596150655384" height="187.7596150655384" as="geometry" />
        </mxCell>
        <mxCell id="2FPmp4NiGXTtn7AZh2EG-32" value="" style="verticalLabelPosition=bottom;shadow=0;dashed=0;align=center;html=1;verticalAlign=top;strokeWidth=1;shape=mxgraph.mockup.markup.line;strokeColor=#999999;rounded=0;labelBackgroundColor=none;fillColor=#ffffff;fontFamily=Verdana;fontSize=12;fontColor=#000000;" vertex="1" parent="7026571954dc6520-1">
          <mxGeometry x="-2" y="834" width="1050" height="20" as="geometry" />
        </mxCell>
        <mxCell id="2FPmp4NiGXTtn7AZh2EG-39" value="" style="shape=image;html=1;verticalAlign=top;verticalLabelPosition=bottom;labelBackgroundColor=#ffffff;imageAspect=0;aspect=fixed;image=https://cdn4.iconfinder.com/data/icons/evil-icons-user-interface/64/picture-128.png" vertex="1" parent="7026571954dc6520-1">
          <mxGeometry x="793.0259891598917" y="870" width="143.94628836900614" height="143.94628836900614" as="geometry" />
        </mxCell>
        <mxCell id="2FPmp4NiGXTtn7AZh2EG-38" value="" style="group" vertex="1" connectable="0" parent="7026571954dc6520-1">
          <mxGeometry x="665" y="865" width="329" height="264" as="geometry" />
        </mxCell>
        <mxCell id="2FPmp4NiGXTtn7AZh2EG-41" value="" style="shape=image;html=1;verticalAlign=top;verticalLabelPosition=bottom;labelBackgroundColor=#ffffff;imageAspect=0;aspect=fixed;image=https://cdn4.iconfinder.com/data/icons/evil-icons-user-interface/64/picture-128.png;container=0;" vertex="1" parent="2FPmp4NiGXTtn7AZh2EG-38">
          <mxGeometry y="38.12" width="201.88" height="201.88" as="geometry" />
        </mxCell>
        <mxCell id="2FPmp4NiGXTtn7AZh2EG-40" value="" style="shape=image;html=1;verticalAlign=top;verticalLabelPosition=bottom;labelBackgroundColor=#ffffff;imageAspect=0;aspect=fixed;image=https://cdn4.iconfinder.com/data/icons/evil-icons-user-interface/64/picture-128.png;container=0;" vertex="1" parent="7026571954dc6520-1">
          <mxGeometry x="819.999945799458" y="1013.9443929213589" width="116.15357557657211" height="116.15357557657211" as="geometry" />
        </mxCell>
        <mxCell id="7026571954dc6520-36" value="Lorem ipsum dolor sit amet, consectetur adipisicing elit, sed do eiusmod tempor incididunt ut labore et dolore magna aliqua. Ut enim ad minim veniam, quis nostrud exercitation ullamco laboris nisi ut aliquip ex ea commodo consequat. Duis aute irure dolor in reprehenderit in voluptate velit esse cillum dolore eu fugiat nulla pariatur. Excepteur sint occaecat cupidatat non proident, sunt in culpa qui officia deserunt mollit anim id est laborum.&lt;br&gt;Sed ut perspiciatis unde omnis iste natus error sit voluptatem accusantium doloremque laudantium, totam rem aperiam, eaque ipsa quae ab illo inventore veritatis et quasi architecto beatae vitae dicta sunt explicabo.&amp;nbsp;" style="text;spacingTop=-5;whiteSpace=wrap;html=1;align=left;fontSize=12;fontFamily=Helvetica;fillColor=none;strokeColor=none;rounded=0;shadow=1;labelBackgroundColor=none;" parent="1" vertex="1">
          <mxGeometry x="300" y="1535" width="490" height="125" as="geometry" />
        </mxCell>
        <mxCell id="2FPmp4NiGXTtn7AZh2EG-16" value="" style="edgeStyle=orthogonalEdgeStyle;rounded=0;orthogonalLoop=1;jettySize=auto;html=1;" edge="1" parent="1" source="2FPmp4NiGXTtn7AZh2EG-13" target="2FPmp4NiGXTtn7AZh2EG-15">
          <mxGeometry relative="1" as="geometry" />
        </mxCell>
        <mxCell id="2FPmp4NiGXTtn7AZh2EG-15" value="" style="verticalLabelPosition=bottom;shadow=0;dashed=0;align=center;html=1;verticalAlign=top;strokeWidth=1;shape=mxgraph.mockup.graphics.simpleIcon;strokeColor=#999999;fillColor=#ffffff;rounded=0;labelBackgroundColor=none;fontFamily=Verdana;fontSize=12;fontColor=#000000;aspect=fixed;" vertex="1" parent="1">
          <mxGeometry x="1074" y="272" width="200" height="178.95" as="geometry" />
        </mxCell>
      </root>
    </mxGraphModel>
  </diagram>
</mxfile>
